<svg xmlns="http://www.w3.org/2000/svg" viewBox="0 0 32 32"><path fill="#ffd34d" d="M16 32c8.836 0 16-7.164 16-16s-7.164-16-16-16c-8.837 0-16 7.163-16 16s7.163 16 16 16z"/><path fill="#efac2b" d="M26.1 3.6c2.3 2.8 3.6 6.3 3.6 10.1 0 8.8-7.2 16-16 16-3.8 0-7.4-1.4-10.1-3.6 3 3.6 7.4 5.9 12.4 5.9 8.8 0 16-7.2 16-16 0-5-2.3-9.4-5.9-12.4z"/><path fill="#fff" d="M2.6 12.2h-0.1c-0.3-0.1-0.4-0.4-0.3-0.6 1.3-4.3 4.5-7.8 8.8-9.3 0.3-0.1 0.5 0 0.6 0.3s0 0.5-0.3 0.6c-3.9 1.4-7 4.6-8.1 8.6-0.2 0.2-0.4 0.4-0.6 0.4z"/><path fill="#3d3813" d="M10.1 10.3c-0.9 0-1.7 0.7-1.7 1.6v1.3c0 0.9 0.7 1.6 1.6 1.6s1.6-0.7 1.6-1.6v-1.3c0.2-0.9-0.6-1.6-1.5-1.6z"/><path fill="#3d3813" d="M21.9 10.3c-0.9 0-1.7 0.7-1.7 1.6v1.3c0 0.9 0.7 1.6 1.6 1.6s1.6-0.7 1.6-1.6v-1.3c0.1-0.9-0.6-1.6-1.5-1.6z"/><path fill="#3d3813" d="M16 25.2c-5.9 0-7.8-4.4-7.9-4.6-0.2-0.4 0-0.8 0.4-1s0.8 0 1 0.4c0.1 0.2 1.6 3.6 6.5 3.6 5 0 6.5-3.6 6.5-3.6 0.2-0.4 0.6-0.6 1-0.4s0.6 0.6 0.4 1c-0.1 0.2-2 4.6-7.9 4.6z"/></svg>